<?xml version="1.0" encoding="UTF-8"?>
<!DOCTYPE svg PUBLIC "-//W3C//DTD SVG 1.1//EN" "http://www.w3.org/Graphics/SVG/1.1/DTD/svg11.dtd">
<!-- Creator: CorelDRAW -->
<svg xmlns="http://www.w3.org/2000/svg" xml:space="preserve" width="2048px" height="2048px" style="shape-rendering:geometricPrecision; text-rendering:geometricPrecision; image-rendering:optimizeQuality; fill-rule:evenodd; clip-rule:evenodd"
viewBox="0 0 2048 2048"
 xmlns:xlink="http://www.w3.org/1999/xlink">
 <defs>
  <style type="text/css">
   <![CDATA[
    .fil1 {fill:none}
    .fil0 {fill:#424242;fill-rule:nonzero}
   ]]>
  </style>
 </defs>
 <g id="Layer_x0020_1">
  <metadata id="CorelCorpID_0Corel-Layer"/>
  <g id="_245936656">
   <g>
    <path id="_245942176" class="fil0" d="M668.371 1510.5c24.0815,6.23504 45.8634,15.8067 64.0701,27.8776 37.5095,24.8693 60.7111,60.4548 60.7111,100.858 0,40.402 -23.2016,75.9875 -60.7111,100.857 -33.5705,22.2567 -79.2886,36.0225 -129.193,36.0225 -49.904,0 -95.6233,-13.7658 -129.194,-36.0225 -37.5095,-24.8693 -60.7123,-60.4548 -60.7123,-100.857 0,-40.4032 23.2028,-75.9886 60.7123,-100.858 18.2067,-12.0709 39.9874,-21.6425 64.0713,-27.8776l0 99.7902c0,35.9551 29.1673,65.1225 65.1225,65.1225 35.954,0 65.1225,-29.1673 65.1225,-65.1225l0 -99.7902z"/>
    <path id="_245942728" class="fil0" d="M603.248 271.883c90.7713,0 173.634,14.5725 234.219,38.1331 69.8339,27.1571 113.029,68.2382 113.029,116.805 0,48.5646 -43.1953,89.6481 -113.029,116.805 -60.5847,23.5606 -143.447,38.1331 -234.219,38.1331 -90.7713,0 -173.634,-14.5725 -234.22,-38.1331 -69.8339,-27.1571 -113.029,-68.2406 -113.029,-116.805 0,-48.567 43.1953,-89.6481 113.029,-116.805 60.5859,-23.5606 143.449,-38.1331 234.22,-38.1331zm210.814 98.6753c-53.3056,-20.7295 -127.791,-33.5516 -210.814,-33.5516 -83.0233,0 -157.508,12.8221 -210.816,33.5516 -44.0563,17.1331 -71.3091,37.2425 -71.3091,56.263 0,19.0193 27.2528,39.13 71.3091,56.263 53.3079,20.7295 127.793,33.5516 210.816,33.5516 83.0233,0 157.508,-12.8221 210.814,-33.5516 44.0575,-17.1331 71.3103,-37.2437 71.3103,-56.263 0,-19.0205 -27.2528,-39.13 -71.3103,-56.263z"/>
    <path id="_245942152" class="fil0" d="M950.496 426.821l0 443.62c0,148.667 -91.1068,243.678 -207.724,285.129 -44.1792,15.7051 -91.9335,23.5571 -139.525,23.5571 -47.5902,0 -95.3457,-7.85316 -139.526,-23.5571 -116.615,-41.4508 -207.722,-136.461 -207.722,-285.129l0 -443.62 65.1237 0 0 443.62c0,116.41 72.0284,191.052 164.222,223.823 37.0217,13.1587 77.3835,19.7398 117.902,19.7398 40.5189,0 80.8808,-6.57993 117.902,-19.7398 92.1934,-32.7709 164.223,-107.412 164.223,-223.823l0 -443.62 65.1237 0z"/>
    <path id="_245942656" class="fil0" d="M635.81 1146.54c0,-17.9835 -14.5795,-32.5618 -32.5618,-32.5618 -17.9835,0 -32.5618,14.5784 -32.5618,32.5618l0 463.754c0,17.9835 14.5784,32.5618 32.5618,32.5618 17.9823,0 32.5618,-14.5784 32.5618,-32.5618l0 -463.754z"/>
    <path id="_245940616" class="fil0" d="M353.684 719.32c101.313,20.276 178.441,-1.83425 251.757,-22.8626 78.6981,-22.5744 153.497,-44.015 247.371,-20.4673l0 194.451c0,94.7576 -55.0831,162.045 -142.567,193.142 -34.1303,12.1311 -70.8178,17.8595 -106.997,17.8595 -36.1796,0 -72.867,-5.72835 -106.997,-17.8595 -87.4855,-31.0961 -142.566,-98.3859 -142.566,-193.142l0 -151.121z"/>
   </g>
   <g>
    <path id="_245940184" class="fil0" d="M1505.42 1514.79c-22.4103,10.7965 -41.9162,24.4193 -57.43,39.7985 -31.9607,31.6855 -47.8028,71.1024 -39.9496,110.734 7.85316,39.6319 37.5296,70.0288 79.1575,87.1335 37.2555,15.3071 84.7772,19.9252 133.729,10.2248 48.9532,-9.69922 91.1245,-32.0906 119.728,-60.4477 31.9607,-31.6855 47.804,-71.1012 39.9508,-110.734 -7.85316,-39.6319 -37.5296,-70.0288 -79.1575,-87.1324 -20.2051,-8.30197 -43.4327,-13.4575 -68.2678,-14.8925l19.3961 97.8875c6.98859,35.2689 -15.9543,69.5493 -51.2233,76.5379 -35.2689,6.98859 -69.5493,-15.9543 -76.5379,-51.2233l-19.3961 -97.8863z"/>
    <path id="_245939272" class="fil0" d="M1328.55 287.13c-89.041,17.6433 -167.49,48.0449 -222.34,82.9312 -63.2233,40.213 -97.6099,88.9075 -88.1694,136.547 9.43938,47.6386 59.7957,79.5426 133.577,92.6079 64.0075,11.335 148.123,9.52442 237.163,-8.1189 89.041,-17.6421 167.49,-48.0437 222.342,-82.9312 63.2233,-40.213 97.6087,-88.9075 88.1694,-136.546 -9.43938,-47.641 -59.7957,-79.5426 -133.577,-92.6091 -64.0087,-11.335 -148.125,-9.52442 -237.164,8.1189zm-187.615 137.77c48.2611,-30.6957 118.832,-57.75 200.273,-73.8875 81.4406,-16.1374 156.997,-18.0378 213.317,-8.06339 46.5473,8.24292 77.1886,22.6713 80.8855,41.3292 3.69685,18.6567 -19.1268,43.6807 -59.0138,69.0497 -48.2622,30.6957 -118.833,57.7512 -200.274,73.8886 -81.4406,16.1374 -156.997,18.0366 -213.316,8.06339 -46.5473,-8.24292 -77.1886,-22.6725 -80.8855,-41.3292 -3.69685,-18.6579 19.1268,-43.6807 59.0138,-69.0508z"/>
    <path id="_245939344" class="fil0" d="M1018.04 506.608l86.2253 435.16c28.8969,145.831 136.733,221.322 259.182,239.316 46.3902,6.81733 94.7587,5.23819 141.443,-4.01221 46.6831,-9.2504 92.0009,-26.2358 132.286,-50.2264 106.335,-63.3272 177.236,-174.234 148.341,-320.067l-86.2264 -435.159 -63.8812 12.6579 86.2253 435.159c22.6264,114.19 -33.5197,201.409 -117.585,251.475 -33.7583,20.1036 -72.0709,34.4044 -111.817,42.28 -39.7465,7.8756 -80.6174,9.26576 -119.491,3.55276 -96.8044,-14.2264 -181.968,-73.4434 -204.594,-187.635l-86.2264 -435.159 -63.8812 12.6579z"/>
    <path id="_245939488" class="fil0" d="M1466.61 1151.44c-3.49488,-17.6398 7.97245,-34.7752 25.6122,-38.2701 17.6398,-3.49488 34.774,7.97245 38.2701,25.6122l90.1394 454.91c3.49488,17.6398 -7.97245,34.774 -25.6122,38.2701 -17.6398,3.49488 -34.7752,-7.97245 -38.2701,-25.6122l-90.1394 -454.91z"/>
    <path id="_245937472" class="fil0" d="M1660.32 677.527c-95.4402,39.5811 -175.395,32.8843 -251.399,26.5063 -81.5847,-6.84567 -159.125,-13.3394 -246.632,28.0051l37.7953 190.742c18.4181,92.9505 85.5284,148.249 177.39,161.749 35.837,5.26654 72.9379,3.75355 108.428,-3.27874 35.4886,-7.03111 70.3642,-19.7811 101.485,-38.315 79.7729,-47.5075 120.724,-124.22 102.306,-217.169l-29.3729 -148.239z"/>
   </g>
  </g>
 </g>
 <rect class="fil1" width="2048" height="2048"/>
</svg>
